<svg width="801" height="238" viewBox="0 0 801 238" fill="none" xmlns="http://www.w3.org/2000/svg">
    <path
        d="M794.905 209.109C794.905 212.093 794.316 215.048 793.173 217.805C792.03 220.562 790.355 223.066 788.243 225.175C786.131 227.284 783.625 228.956 780.866 230.096C778.107 231.236 775.151 231.821 772.166 231.818H28.0463C22.0152 231.824 16.2285 229.435 11.9588 225.177C7.68917 220.918 5.28618 215.139 5.27832 209.109V28.0156C5.28618 21.9833 7.68822 16.2007 11.957 11.9375C16.2258 7.67429 22.0125 5.27891 28.0463 5.27734H772.16C775.147 5.27734 778.104 5.86553 780.863 7.0083C783.622 8.15108 786.129 9.82606 788.241 11.9376C790.352 14.0491 792.027 16.5558 793.169 19.3145C794.312 22.0732 794.899 25.0298 794.899 28.0156L794.905 209.109Z"
        fill="white" />
    <path
        d="M772.166 237.1H28.0463C20.6167 237.099 13.4911 234.151 8.23306 228.903C2.97506 223.655 0.0141366 216.536 0 209.109L0 28.0211C0.0109911 20.5897 2.96996 13.4661 8.22779 8.21304C13.4856 2.95993 20.613 0.00627235 28.0463 0L772.16 0C779.593 0.00940211 786.718 2.96407 791.975 8.2165C797.233 13.4689 800.192 20.5907 800.207 28.0211V209.109C800.218 224.548 787.616 237.1 772.166 237.1Z"
        fill="#A6A6A6" />
    <path
        d="M794.905 209.109C794.905 212.093 794.316 215.048 793.173 217.805C792.03 220.562 790.355 223.066 788.243 225.175C786.131 227.284 783.625 228.956 780.866 230.096C778.107 231.236 775.151 231.821 772.166 231.818H28.0463C22.0152 231.824 16.2285 229.435 11.9588 225.177C7.68917 220.918 5.28618 215.139 5.27832 209.109V28.0156C5.28618 21.9833 7.68822 16.2007 11.957 11.9375C16.2258 7.67429 22.0125 5.27891 28.0463 5.27734H772.16C775.147 5.27734 778.104 5.86553 780.863 7.0083C783.622 8.15108 786.129 9.82606 788.241 11.9376C790.352 14.0491 792.027 16.5558 793.169 19.3145C794.312 22.0732 794.899 25.0298 794.899 28.0156L794.905 209.109Z"
        fill="black" />
    <path
        d="M178.681 117.302C178.509 98.1923 194.332 88.8954 195.055 88.4626C186.094 75.4007 172.204 73.616 167.323 73.4737C155.658 72.2464 144.342 80.4523 138.399 80.4523C132.338 80.4523 123.187 73.5923 113.324 73.7939C100.632 73.9896 88.7592 81.3358 82.2472 92.7434C68.8083 116.003 78.8312 150.185 91.7067 168.986C98.1475 178.2 105.674 188.475 115.524 188.114C125.162 187.722 128.762 181.977 140.392 181.977C151.915 181.977 155.296 188.114 165.342 187.882C175.686 187.722 182.197 178.633 188.413 169.342C195.856 158.794 198.845 148.394 198.964 147.861C198.726 147.778 178.882 140.2 178.681 117.302ZM159.702 61.1056C164.886 54.625 168.432 45.8084 167.448 36.8613C159.945 37.1934 150.563 42.0493 145.16 48.3876C140.38 53.9728 136.11 63.1274 137.213 71.7365C145.641 72.365 154.293 67.4853 159.702 61.1056Z"
        fill="white" />
    <path
        d="M772.166 0H373.593L529.707 237.1H772.166C779.597 237.094 786.723 234.142 791.98 228.891C797.238 223.641 800.198 216.52 800.212 209.091V28.0211C800.2 20.5902 797.24 13.4675 791.983 8.21477C786.725 2.962 779.599 0.00783783 772.166 0Z"
        fill="url(#paint0_linear_17_77)" />
    <path
        d="M318.271 186.792H304.803L297.425 163.615H271.78L264.752 186.792H251.64L277.053 107.887H292.745L318.271 186.792ZM295.201 153.891L288.529 133.287C287.823 131.182 286.494 126.226 284.549 118.423H284.312C283.529 121.779 282.278 126.736 280.564 133.287L274.004 153.891H295.201ZM383.497 157.644C383.497 167.32 380.87 174.969 375.609 180.584C370.9 185.582 365.047 188.078 358.066 188.078C350.528 188.078 345.108 185.392 341.816 180.009V209.862H329.172V148.596C329.172 142.519 329.012 136.287 328.703 129.896H339.823L340.529 138.914H340.766C344.983 132.119 351.382 128.722 359.97 128.722C366.684 128.722 372.288 131.372 376.772 136.679C381.249 141.997 383.497 148.982 383.497 157.644ZM370.616 158.107C370.616 152.569 369.37 148.003 366.867 144.404C364.133 140.663 360.462 138.789 355.86 138.789C352.74 138.789 349.906 139.833 347.373 141.89C344.835 143.966 343.174 146.675 342.397 150.031C342.05 151.286 341.853 152.578 341.81 153.879V163.372C341.81 167.504 343.079 170.997 345.618 173.854C348.156 176.7 351.453 178.129 355.51 178.129C360.272 178.129 363.979 176.285 366.63 172.627C369.287 168.957 370.616 164.119 370.616 158.107ZM448.954 157.644C448.954 167.32 446.327 174.969 441.066 180.584C436.352 185.582 430.504 188.078 423.517 188.078C415.98 188.078 410.559 185.392 407.267 180.009V209.862H394.623V148.596C394.623 142.519 394.463 136.287 394.155 129.896H405.275L405.98 138.914H406.218C410.428 132.119 416.828 128.722 425.421 128.722C432.129 128.722 437.733 131.372 442.229 136.679C446.701 141.997 448.954 148.982 448.954 157.644ZM436.067 158.107C436.067 152.569 434.815 148.003 432.313 144.404C429.579 140.663 425.919 138.789 421.317 138.789C418.198 138.789 415.363 139.833 412.818 141.89C410.28 143.966 408.625 146.675 407.849 150.031C407.463 151.596 407.255 152.871 407.255 153.879V163.372C407.255 167.504 408.531 170.997 411.057 173.854C413.595 176.694 416.893 178.129 420.961 178.129C425.73 178.129 429.436 176.285 432.081 172.627C434.738 168.957 436.067 164.119 436.067 158.107ZM522.139 164.658C522.139 171.376 519.791 176.837 515.123 181.052C509.987 185.653 502.817 187.96 493.624 187.96C485.132 187.96 478.323 186.323 473.187 183.045L476.111 172.508C481.656 175.793 487.747 177.43 494.378 177.43C499.146 177.43 502.853 176.351 505.498 174.21C508.149 172.064 509.489 169.194 509.489 165.613C509.489 162.405 508.38 159.719 506.203 157.531C504.015 155.35 500.397 153.316 495.315 151.448C481.496 146.296 474.581 138.76 474.581 128.846C474.581 122.372 477.024 117.071 481.899 112.927C486.774 108.788 493.239 106.719 501.281 106.719C508.463 106.719 514.447 107.97 519.198 110.466L516.025 120.771C511.553 118.352 506.506 117.142 500.86 117.142C496.4 117.142 492.901 118.239 490.398 120.421C488.293 122.372 487.225 124.749 487.225 127.572C487.225 130.684 488.441 133.269 490.861 135.297C492.96 137.165 496.791 139.199 502.331 141.38C509.127 144.12 514.121 147.31 517.318 150.974C520.538 154.638 522.139 159.209 522.139 164.658ZM564.052 139.382H550.114V167.006C550.114 174.032 552.57 177.536 557.492 177.536C559.752 177.536 561.626 177.347 563.109 176.949L563.458 186.549C560.968 187.48 557.688 187.948 553.625 187.948C548.632 187.948 544.729 186.424 541.912 183.377C539.107 180.329 537.695 175.224 537.695 168.038V139.359H529.392V129.872H537.695V119.455L550.114 115.707V129.872H564.052V139.382ZM626.81 157.875C626.81 166.621 624.308 173.801 619.314 179.416C614.089 185.197 607.138 188.078 598.473 188.078C590.111 188.078 583.463 185.309 578.505 179.778C573.547 174.234 571.068 167.249 571.068 158.824C571.068 150.007 573.63 142.786 578.736 137.171C583.854 131.55 590.746 128.74 599.41 128.74C607.761 128.74 614.468 131.514 619.545 137.052C624.396 142.424 626.81 149.361 626.81 157.875ZM613.703 158.166C613.703 152.954 612.577 148.484 610.317 144.742C607.666 140.224 603.87 137.965 598.954 137.965C593.889 137.965 590.004 140.224 587.359 144.742C585.094 148.484 583.967 153.031 583.967 158.403C583.967 163.621 585.094 168.103 587.359 171.833C590.093 176.351 593.907 178.61 598.847 178.61C603.681 178.61 607.47 176.303 610.21 171.72C612.535 167.89 613.703 163.389 613.703 158.166ZM667.928 141.013C666.613 140.776 665.279 140.658 663.942 140.663C659.494 140.663 656.055 142.335 653.635 145.703C651.535 148.667 650.48 152.415 650.48 156.939V186.792H637.835V147.814C637.847 141.841 637.724 135.869 637.468 129.902H648.481L648.944 140.788H649.294C650.634 137.046 652.733 134.028 655.616 131.769C658.254 129.795 661.46 128.726 664.755 128.722C665.923 128.722 666.979 128.805 667.916 128.953L667.928 141.013ZM724.477 155.652C724.509 157.574 724.354 159.494 724.015 161.385H686.082C686.224 167.006 688.063 171.311 691.585 174.275C694.782 176.92 698.916 178.248 703.993 178.248C709.609 178.248 714.733 177.358 719.341 175.562L721.322 184.331C715.937 186.679 709.579 187.847 702.243 187.847C693.418 187.847 686.491 185.25 681.45 180.068C676.421 174.88 673.9 167.907 673.9 159.174C673.9 150.6 676.243 143.456 680.934 137.758C685.845 131.674 692.481 128.633 700.831 128.633C709.034 128.633 715.243 131.674 719.46 137.758C722.799 142.578 724.477 148.555 724.477 155.652ZM712.42 152.373C712.509 148.62 711.679 145.389 709.965 142.655C707.776 139.133 704.408 137.378 699.894 137.378C695.761 137.378 692.392 139.092 689.83 142.531C687.725 145.264 686.473 148.549 686.088 152.361L712.42 152.373Z"
        fill="white" />
    <path
        d="M268.133 79.9899C264.616 79.9899 261.573 79.8179 259.041 79.5274V41.3793C262.583 40.8323 266.162 40.5627 269.746 40.573C284.247 40.573 290.924 47.7057 290.924 59.3328C290.924 72.7445 283.037 79.9899 268.133 79.9899ZM270.256 45.4645C268.299 45.4645 266.632 45.5831 265.25 45.8677V74.8671C265.998 74.9857 267.433 75.039 269.449 75.039C278.95 75.039 284.359 69.6317 284.359 59.5047C284.359 50.4746 279.466 45.4645 270.256 45.4645ZM311.735 80.2804C303.563 80.2804 298.267 74.1793 298.267 65.8963C298.267 57.2635 303.676 51.109 312.198 51.109C320.252 51.109 325.667 56.9196 325.667 65.4398C325.667 74.1793 320.086 80.2804 311.735 80.2804ZM311.973 55.6508C307.483 55.6508 304.607 59.8486 304.607 65.7184C304.607 71.4756 307.542 75.6735 311.913 75.6735C316.284 75.6735 319.22 71.1851 319.22 65.5999C319.22 59.9079 316.344 55.6508 311.973 55.6508ZM372.27 51.6842L363.522 79.646H357.823L354.199 67.5031C353.298 64.5329 352.548 61.519 351.951 58.473H351.833C351.376 61.5206 350.51 64.5741 349.591 67.5031L345.736 79.646H339.977L331.746 51.6842H338.133L341.3 64.9773C342.047 68.1434 342.676 71.1317 343.198 73.954H343.316C343.773 71.6001 344.52 68.6593 345.617 65.0366L349.591 51.6901H354.656L358.457 64.752C359.377 67.9181 360.124 71.025 360.705 73.9599H360.871C361.275 71.0843 361.909 68.0308 362.769 64.752L366.167 51.6901L372.27 51.6842ZM404.474 79.646H398.258V63.5899C398.258 58.645 396.361 56.1666 392.618 56.1666C388.935 56.1666 386.403 59.3328 386.403 63.0147V79.646H380.188V59.6766C380.188 57.2042 380.128 54.5539 379.956 51.6782H385.424L385.715 55.9947H385.887C387.559 53.0064 390.952 51.109 394.753 51.109C400.625 51.109 404.48 55.5974 404.48 62.9021L404.474 79.646ZM421.614 79.646H415.392V38.8535H421.614V79.646ZM444.275 80.2804C436.108 80.2804 430.806 74.1793 430.806 65.8963C430.806 57.2635 436.215 51.109 444.731 51.109C452.791 51.109 458.2 56.9196 458.2 65.4398C458.206 74.1793 452.619 80.2804 444.275 80.2804ZM444.506 55.6508C440.017 55.6508 437.14 59.8486 437.14 65.7184C437.14 71.4756 440.082 75.6735 444.441 75.6735C448.818 75.6735 451.747 71.1851 451.747 65.5999C451.753 59.9079 448.883 55.6508 444.506 55.6508ZM482.706 79.646L482.255 76.4265H482.089C480.191 79.0175 477.421 80.2804 473.911 80.2804C468.899 80.2804 465.341 76.7703 465.341 72.0508C465.341 65.1492 471.325 61.5799 481.686 61.5799V61.0641C481.686 57.3821 479.734 55.5381 475.88 55.5381C473.122 55.5381 470.702 56.2318 468.573 57.6133L467.31 53.5281C469.895 51.9154 473.122 51.109 476.911 51.109C484.218 51.109 487.907 54.963 487.907 62.6768V72.9757C487.907 75.798 488.032 77.9858 488.31 79.6519L482.706 79.646ZM481.852 65.7184C474.948 65.7184 471.485 67.3904 471.485 71.357C471.485 74.292 473.27 75.7268 475.749 75.7268C478.91 75.7268 481.852 73.3137 481.852 70.0348V65.7184ZM518.088 79.646L517.798 75.1576H517.626C515.841 78.5491 512.84 80.2804 508.647 80.2804C501.903 80.2804 496.91 74.3513 496.91 66.009C496.91 57.2635 502.087 51.1031 509.157 51.1031C512.899 51.1031 515.55 52.366 517.045 54.9037H517.169V38.8535H523.39V72.11C523.39 74.8137 523.456 77.3455 523.622 79.646H518.088ZM517.169 63.1926C517.169 59.2794 514.577 55.9413 510.622 55.9413C506.013 55.9413 503.196 60.0265 503.196 65.7777C503.196 71.4163 506.12 75.2762 510.497 75.2762C514.405 75.2762 517.169 71.8788 517.169 67.8529V63.1926ZM562.836 80.2804C554.669 80.2804 549.373 74.1793 549.373 65.8963C549.373 57.2635 554.782 51.109 563.298 51.109C571.358 51.109 576.767 56.9196 576.767 65.4398C576.773 74.1793 571.192 80.2804 562.836 80.2804ZM563.067 55.6508C558.583 55.6508 555.707 59.8486 555.707 65.7184C555.707 71.4756 558.643 75.6735 563.008 75.6735C567.384 75.6735 570.314 71.1851 570.314 65.5999C570.326 59.9079 567.45 55.6508 563.067 55.6508ZM610.192 79.646H603.971V63.5899C603.971 58.645 602.073 56.1666 598.331 56.1666C594.648 56.1666 592.121 59.3328 592.121 63.0147V79.646H585.9V59.6766C585.9 57.2042 585.841 54.5539 585.669 51.6782H591.137L591.427 55.9947H591.599C593.266 53.0064 596.664 51.1031 600.46 51.1031C606.331 51.1031 610.192 55.5915 610.192 62.8962V79.646ZM652.01 56.3445H645.172V69.9222C645.172 73.3789 646.37 75.1043 648.789 75.1043C649.886 75.1043 650.806 74.9857 651.547 74.8137L651.719 79.5333C650.515 79.9958 648.902 80.227 646.897 80.227C641.999 80.227 639.069 77.5233 639.069 70.444V56.3445H634.989V51.6842H639.069V46.5614L645.172 44.7174V51.6782H652.01V56.3445ZM684.913 79.646H678.704V63.7085C678.704 58.7043 676.812 56.1725 673.064 56.1725C669.843 56.1725 666.842 58.3604 666.842 62.7894V79.646H660.633V38.8535H666.842V55.6508H666.967C668.924 52.6032 671.759 51.1031 675.377 51.1031C681.295 51.1031 684.913 55.7041 684.913 63.0147V79.646ZM718.623 67.1592H699.971C700.09 72.4539 703.595 75.4422 708.784 75.4422C711.542 75.4422 714.08 74.9797 716.322 74.12L717.289 78.4364C714.644 79.5867 711.53 80.1618 707.907 80.1618C699.159 80.1618 693.981 74.6359 693.981 66.0683C693.981 57.4947 699.283 51.0497 707.207 51.0497C714.353 51.0497 718.837 56.3445 718.837 64.3429C718.877 65.2868 718.805 66.2321 718.623 67.1592ZM712.924 62.7301C712.924 58.4137 710.747 55.3662 706.774 55.3662C703.203 55.3662 700.381 58.473 699.977 62.7301H712.924Z"
        fill="white" />
    <defs>
        <linearGradient id="paint0_linear_17_77" x1="586.896" y1="237.73" x2="586.896" y2="-617.368"
            gradientUnits="userSpaceOnUse">
            <stop stop-color="#1A1A1A" stop-opacity="0.1" />
            <stop offset="0.123" stop-color="#212121" stop-opacity="0.151" />
            <stop offset="0.308" stop-color="#353535" stop-opacity="0.227" />
            <stop offset="0.532" stop-color="#575757" stop-opacity="0.318" />
            <stop offset="0.783" stop-color="#858585" stop-opacity="0.421" />
            <stop offset="1" stop-color="#B3B3B3" stop-opacity="0.51" />
        </linearGradient>
    </defs>
</svg>