<svg width="500" height="500" viewBox="0 0 500 500" fill="none" xmlns="http://www.w3.org/2000/svg">
    <path
        d="M245.58 52.5297C247.136 51.2909 248.601 50.2321 249.944 49.0304C254.87 44.7234 260.333 41.0686 266.197 38.1565C270.6 35.8895 275.204 34.0339 279.951 32.6137C283.162 31.6006 286.439 30.8099 289.76 30.2473C292.462 29.8449 295.148 29.3526 297.85 28.9238C298.486 28.8346 299.129 28.7956 299.771 28.8073C302.956 28.8073 306.088 28.8073 309.246 28.8073C311.242 28.8073 313.222 28.8073 315.149 29.432C315.372 29.5019 315.605 29.5376 315.839 29.5379C319.618 29.4744 323.27 30.4749 326.837 31.4014C336.801 33.975 346.234 38.2756 354.705 44.1069C360.525 48.133 365.812 52.877 370.438 58.226C376.475 65.0649 381.3 72.8794 384.706 81.3343C386.129 84.8918 387.36 88.5447 388.459 92.2134C389.249 94.8161 389.861 97.4692 390.291 100.154C391.008 104.82 391.31 109.539 391.193 114.258C391.14 116.905 391.145 119.515 391.081 122.14C391.034 122.895 390.942 123.646 390.805 124.39C390.657 125.481 390.498 126.571 390.344 127.662C390.309 128.069 390.252 128.473 390.174 128.874C389.112 133.507 388.173 138.186 386.501 142.67C384.59 147.806 382.546 152.877 379.6 157.494C377.838 160.241 376.118 163.015 374.292 165.705C373.198 167.216 372.025 168.668 370.778 170.056C369.483 171.56 368.124 173.037 366.77 174.461C361.929 179.453 357.056 184.408 352.21 189.395C344.757 197.061 337.31 204.73 329.868 212.403C322.999 219.491 316.163 226.617 309.278 233.69C299.723 243.531 290.084 253.32 280.519 263.167C272.907 271.002 265.321 278.862 257.763 286.746C255.698 288.896 253.681 291.087 251.616 293.237C250.023 294.867 249.811 294.862 248.24 293.311C244.874 289.981 241.583 286.577 238.154 283.326C229.189 274.856 220.436 266.184 211.545 257.656C205.812 252.161 199.925 246.83 194.288 241.244C189.919 236.967 185.376 232.949 180.991 228.714C177.037 224.902 173.209 220.958 169.26 217.141C163.506 211.582 157.678 206.103 151.913 200.555C147.614 196.426 143.388 192.222 139.089 188.093C135.639 184.779 132.04 181.608 128.669 178.214C125.176 174.699 121.71 171.136 118.541 167.33C113.518 161.314 109.464 154.556 106.524 147.297C105.066 143.808 103.813 140.238 102.771 136.604C101.907 133.407 101.228 130.163 100.738 126.889C100.038 122.11 99.7295 117.282 99.814 112.452C99.814 109.541 99.899 106.629 100.164 103.723C100.43 101.424 100.832 99.1439 101.369 96.8933C101.948 94.2463 102.537 91.5517 103.344 88.9523C104.262 86.0142 105.366 83.1289 106.502 80.2649C108.376 75.6669 110.715 71.2714 113.482 67.1464C115.205 64.5896 117.066 62.1279 119.056 59.7719C121.162 57.1177 123.428 54.5931 125.84 52.212C128.579 49.6127 131.599 47.2992 134.566 44.9487C138.443 41.9508 142.637 39.3839 147.072 37.2936C150.06 35.7536 153.169 34.4576 156.367 33.4184C159.297 32.5449 162.147 31.3908 165.093 30.5755C167.073 30.1279 169.075 29.7868 171.092 29.5538C171.383 29.5061 171.728 29.5961 171.957 29.4691C173.878 28.4103 175.964 28.9397 177.976 28.7703C178.889 28.6909 179.786 28.4315 180.689 28.2409C181.138 28.1265 181.596 28.0503 182.058 28.0132C184.399 28.0132 186.735 28.0132 189.075 28.0132C189.367 27.9789 189.663 28.0115 189.941 28.1085C191.814 29.0667 193.832 28.6644 195.78 28.7967C196.754 28.9088 197.721 29.0732 198.678 29.2891C198.906 29.3314 199.14 29.4955 199.352 29.4691C201.321 29.2255 203.121 30.0567 205 30.3743C206.586 30.7047 208.151 31.129 209.687 31.6449C210.786 31.9731 211.869 32.3543 212.962 32.7037C217.886 34.3203 222.648 36.3904 227.188 38.8871C232.252 41.5976 236.859 44.9805 241.329 48.538C242.799 49.708 244.068 51.095 245.58 52.5297Z"
        fill="#14989D" />
    <path
        d="M428.956 260.165C428.956 261.824 428.956 263.11 428.956 264.418C428.956 265.535 429.004 266.646 428.424 267.667C428.319 267.876 428.266 268.108 428.27 268.342C428.19 270.841 427.206 273.069 426.099 275.222C424.908 277.546 423.615 279.832 422.21 282.033C421.338 283.279 420.361 284.447 419.29 285.527C416.234 288.922 412.798 291.954 409.049 294.565C404.371 297.83 399.464 300.753 394.366 303.312C388.658 306.13 383.035 309.16 377.379 312.074C374.526 313.553 371.909 315.451 369.618 317.705C368.525 318.909 367.568 320.23 366.766 321.645C365.351 323.857 367.527 326.116 369.389 326.201C371.529 326.323 373.676 326.16 375.773 325.717C379.287 324.885 382.721 323.745 386.035 322.309C389.921 320.713 393.659 318.779 397.207 316.53C398.925 315.429 400.729 314.472 402.452 313.377C403.718 312.569 404.921 311.649 406.144 310.771C407.368 309.894 408.607 309.022 409.799 308.113C411.831 306.545 413.837 304.923 415.848 303.328C416.307 302.962 416.745 302.572 417.162 302.158C419.37 299.973 421.556 297.766 423.769 295.586C426.336 293.029 428.665 290.244 430.728 287.265C432.143 285.266 433.638 283.315 434.946 281.241C437.542 277.165 439.669 272.81 441.288 268.257C442.235 265.562 442.947 262.823 443.687 260.074C444.432 257.621 445.307 255.209 446.31 252.849C447.842 248.893 449.906 245.208 451.997 241.524C453.893 238.111 456.002 234.82 458.311 231.671C460.471 228.779 462.817 226.014 465.11 223.223C466.818 221.144 468.536 219.07 470.313 217.06C472.766 214.28 475.729 212.073 478.564 209.712C481.21 207.515 484.083 205.608 487.135 204.023C489.442 202.838 492.064 202.404 494.63 202.784C496.758 203.061 497.966 204.603 498.684 206.506C499.639 209.024 500.082 211.706 499.988 214.397C499.892 217.199 499.956 220.033 499.557 222.792C499.119 225.149 498.471 227.463 497.62 229.704C496.482 233.064 495.226 236.387 493.971 239.705C493.279 241.54 492.428 243.315 491.768 245.155C491.109 246.995 490.635 248.781 490.077 250.6C490.045 250.711 490.039 250.834 489.997 250.94C488.921 253.572 488.102 256.302 487.55 259.091C487.246 260.659 486.432 262.127 486.071 263.695C485.799 264.876 485.677 266.072 485.331 267.263C484.799 269.028 484.725 270.916 484.448 272.745C484.414 273.103 484.353 273.458 484.267 273.808C483.703 275.605 483.735 277.53 483.357 279.306C482.937 281.395 483.171 283.559 482.618 285.516C481.809 288.361 482.437 291.365 481.171 294.124C480.969 294.571 481.107 295.188 481.022 295.682C480.894 296.416 480.708 297.139 480.533 297.862C480.449 298.078 480.381 298.3 480.33 298.527C480.08 301.743 478.777 304.684 477.942 307.751C475.628 316.259 471.92 324.202 467.781 331.928C465.12 337.004 462.004 341.829 458.471 346.342C456.907 348.304 455.444 350.34 453.933 352.345C453.845 352.498 453.747 352.645 453.64 352.786C449.714 356.965 445.911 361.293 441.809 365.276C439.064 367.934 435.914 370.242 432.909 372.655C430.552 374.548 428.185 376.452 425.727 378.212C423.934 379.504 422.003 380.572 420.104 381.742C418.971 382.444 417.869 383.21 416.699 383.842C412.081 386.331 407.464 388.824 402.798 391.228C400.537 392.392 398.207 393.434 395.85 394.418C394.153 395.12 392.366 395.603 390.626 396.199C389.53 396.576 388.461 397.012 387.365 397.374C385.343 398.039 383.317 398.693 381.274 399.309C379.768 399.761 378.252 400.171 376.73 400.559C375.097 400.979 373.459 401.362 371.82 401.75C370.075 402.165 368.32 402.563 366.569 402.967C366.18 403.082 365.778 403.154 365.372 403.18C364.255 403.18 363.165 403.18 362.122 403.754C361.676 403.887 361.209 403.943 360.744 403.919C360.045 403.944 359.349 404.04 358.669 404.206C356.947 404.781 355.131 405.024 353.318 404.924C353.083 404.889 352.844 404.913 352.621 404.993C350.86 405.929 348.961 405.573 347.104 405.636C346.871 405.599 346.634 405.599 346.402 405.636C343.859 406.578 341.082 405.945 338.512 406.918C337.725 407.221 336.746 407.003 335.927 407.253C332.485 408.316 328.942 409.061 325.659 410.608C321.864 412.306 318.51 414.853 315.855 418.052C314.088 420.237 313.158 422.709 312.354 425.384C311.29 428.994 311.7 432.609 311.854 436.182C311.966 438.804 312.876 441.414 313.61 443.982C314.344 446.55 315.504 449.15 316.158 451.803C316.7 453.645 317.038 455.54 317.163 457.455C317.206 459.582 317.163 461.64 317.163 463.729C317.163 467.563 312.817 472.237 308.407 472.109C305.147 471.964 301.977 470.99 299.198 469.28C296.861 467.85 294.769 466.055 293 463.963C291.29 462.129 289.796 460.104 288.548 457.929C287.266 455.547 285.771 453.276 285.1 450.575C284.712 449.023 283.893 447.577 283.292 446.072C282.882 445.056 282.472 444.035 282.132 442.993C281.238 440.239 280.392 437.474 279.504 434.72C278.759 432.413 277.908 430.142 277.232 427.808C276.764 426.213 276.509 424.586 276.115 422.98C275.721 421.375 275.29 419.87 274.897 418.312C274.78 417.865 274.732 417.403 274.647 416.951C274.498 416.148 274.354 415.356 274.189 414.553C274.024 413.75 273.854 413.08 273.657 412.341C273.519 411.719 273.386 411.097 273.237 410.475C273.102 410.154 273.006 409.819 272.95 409.475C272.95 407.944 272.95 406.429 272.221 405.02C272.519 402.021 271.045 399.171 271.439 396.156C271.511 395.691 271.469 395.215 271.316 394.769C270.604 392.902 270.784 390.967 270.726 389.037C270.657 385.879 270.444 382.72 270.46 379.562C270.46 374.649 270.636 369.731 270.742 364.813C270.731 364.453 270.778 364.094 270.88 363.75C271.34 362.296 271.543 360.774 271.481 359.251C271.543 358.383 271.672 357.521 271.87 356.673C271.912 356.444 272.045 356.231 272.077 356.003C272.364 353.993 272.609 351.967 272.944 349.963C273.205 348.485 273.609 347.028 274.008 345.576C274.711 343.008 275.365 340.424 276.2 337.899C276.908 335.772 277.887 333.725 278.669 331.614C280.276 327.531 282.195 323.578 284.409 319.789C285.473 317.859 286.765 316.067 287.952 314.169C288.484 313.334 288.963 312.473 289.511 311.654C291.585 308.703 293.814 305.864 296.187 303.147C299.024 299.717 302.192 296.576 305.646 293.768C307.556 292.237 309.418 290.642 311.333 289.116C312.154 288.459 313.02 287.86 313.924 287.324C319.047 284.309 324.297 281.56 329.974 279.694C332.102 278.997 334.161 278.099 336.294 277.413C337.89 276.913 339.571 276.701 341.188 276.275C342.571 275.914 343.912 275.377 345.3 275.026C347.035 274.584 348.796 274.265 350.546 273.883C351.727 273.627 352.913 273.409 354.073 273.085C356.643 272.362 359.191 271.575 361.755 270.831C363.596 270.299 365.479 269.868 367.282 269.236C372.528 267.428 377.64 265.354 382.428 262.462C385.515 260.59 388.502 258.558 391.376 256.374C393.313 254.906 394.887 252.971 396.659 251.28C399.191 248.856 401.447 246.133 404.336 244.081C405.846 243.018 407.171 241.657 408.825 240.779C410.624 239.828 412.369 238.583 414.294 238.121C416.295 237.648 418.379 237.648 420.38 238.121C422.402 238.652 423.961 240.295 424.966 242.225C425.857 243.853 426.629 245.543 427.275 247.282C427.694 248.78 428.005 250.306 428.206 251.849C428.203 252.141 428.228 252.433 428.28 252.721C429.366 255.247 428.807 257.921 428.956 260.165Z"
        fill="#14989D" />
    <path
        d="M229.534 377.93C229.534 382.266 229.534 386.602 229.534 390.938C229.447 391.617 229.308 392.288 229.119 392.946C228.97 393.682 228.876 394.428 228.837 395.178C228.837 397.112 228.891 399.036 227.975 400.842C227.825 401.347 227.773 401.875 227.821 402.399C227.757 403.605 228.039 404.849 227.225 405.959C227.018 406.241 227.119 406.751 227.103 407.16C227.055 408.313 227.3 409.509 226.496 410.54C226.372 410.807 226.335 411.106 226.39 411.395C226.529 412.627 226.258 413.871 225.618 414.934C225.556 415.034 225.511 415.143 225.485 415.258C225.198 416.852 224.953 418.446 224.629 419.998C224.501 420.609 224.006 421.204 224.054 421.773C224.208 423.664 222.953 425.179 222.852 427.001C222.713 428.031 222.446 429.039 222.059 430.003C220.936 433.553 219.776 437.097 218.632 440.63C217.781 443.287 217.036 445.976 216.052 448.601C215.156 451.212 214.049 453.746 212.742 456.178C211.439 458.426 209.55 460.344 208.049 462.474C206.549 464.605 204.367 466.061 202.399 467.666C200.703 468.977 198.759 469.932 196.684 470.471C195.23 470.875 193.729 471.089 192.22 471.109C188.464 471.221 185.915 469.223 184.117 466.252C183.375 465.068 183.004 463.69 183.052 462.294C183.159 461.008 183.159 459.716 183.052 458.431C182.76 455.721 183.776 453.293 184.548 450.816C185.367 448.218 186.468 445.689 187.08 443.048C187.426 441.555 188.315 440.131 188.022 438.489C187.976 438.257 188.014 438.016 188.128 437.809C189.113 436.284 189.006 434.578 189.006 432.883C189.006 431.289 189.006 429.722 189.006 428.138C189.031 427.086 188.791 426.045 188.309 425.109C187.863 424.18 187.538 423.198 187.341 422.187C186.848 420.213 185.808 418.417 184.34 417.006C182.898 415.492 181.525 413.855 179.865 412.617C178.151 411.426 176.318 410.415 174.396 409.599C172.517 408.722 170.538 408.058 168.601 407.314C168.335 407.2 168.05 407.133 167.761 407.118C166.883 407.191 166.003 406.991 165.244 406.544C164.909 406.315 164.334 406.454 163.877 406.374C163.094 406.23 162.323 405.991 161.535 405.885C160.615 405.753 159.687 405.682 158.758 405.672C157.703 405.735 156.65 405.521 155.704 405.051C155.123 404.786 154.491 404.654 153.852 404.663C152.623 404.604 151.389 404.689 150.16 404.62C149.537 404.531 148.922 404.398 148.319 404.222C147.702 404.084 147.076 403.989 146.446 403.94C145.052 403.882 143.62 404.11 142.338 403.313C142.236 403.253 142.116 403.228 141.998 403.244C139.428 403.59 137.113 402.288 134.602 402.112C132.968 402.001 131.372 401.326 129.76 400.906C129.537 400.838 129.306 400.795 129.074 400.779C127.025 400.688 125.11 400.029 123.157 399.487C121.204 398.945 119.368 398.504 117.49 397.946C115.362 397.325 113.266 396.692 111.196 395.949C108.7 395.051 106.221 394.099 103.789 393.042C100.475 391.602 97.2023 390.077 93.9407 388.515C91.6102 387.399 89.3046 386.218 87.0237 384.971C85.0923 383.908 83.23 382.718 81.3571 381.549C79.1969 380.206 77.0544 378.841 74.9297 377.452C73.8655 376.761 72.8333 376.007 71.8277 375.231C70.2315 373.993 68.6725 372.691 67.0656 371.453C62.5749 367.999 58.1374 364.439 54.4023 360.194C51.5983 357.005 48.5122 354.046 46.0966 350.491C44.2716 347.802 42.0103 345.411 40.0895 342.781C38.4134 340.486 36.897 338.073 35.4019 335.645C33.7312 332.898 32.1616 330.092 30.6132 327.276C30.028 326.213 29.581 325.087 29.0809 323.982C28.336 322.356 27.5538 320.74 26.8834 319.088C26.213 317.435 25.5958 315.602 24.9733 313.854C24.4093 312.26 23.8133 310.666 23.3345 309.072C22.5364 306.357 21.3498 303.758 21.1423 300.873C20.0782 299.396 20.7965 297.462 19.8547 295.889C19.4503 295.203 19.7217 294.151 19.4929 293.322C18.8408 291.143 18.5708 288.867 18.6948 286.595C18.7463 286.365 18.7278 286.124 18.6416 285.905C17.6359 284.411 18.1095 282.716 17.9712 281.122C17.8967 280.389 17.5827 279.688 17.4817 278.96C17.3548 278.037 17.2891 277.107 17.2848 276.175C17.2848 275.113 17.2848 274.05 16.5399 273.189C16.4175 273.059 16.3393 272.893 16.3164 272.716C16.2845 271.096 15.8269 269.528 15.662 267.934C15.4811 266.197 14.5978 264.608 14.7521 262.844C13.539 261.499 14.0764 259.602 13.2357 258.109C12.7675 257.286 12.9697 256.244 12.5493 255.277C11.682 253.285 11.267 251.095 10.57 249.023C9.98472 247.275 9.25046 245.575 8.61197 243.842C8.18631 242.673 7.84578 241.473 7.39884 240.309C7.13812 239.618 6.70714 238.991 6.43046 238.306C5.43371 235.861 4.4618 233.407 3.51471 230.941C3.18482 230.091 2.92942 229.209 2.67402 228.332C2.34899 226.919 1.94578 225.524 1.46622 224.156C0.763881 222.487 1.13633 220.649 0.598935 219.071C0.0210419 217.607 -0.142772 216.014 0.125397 214.464C0.609585 212.338 0.407389 210.091 1.38108 208.087C1.47066 207.808 1.52953 207.519 1.55666 207.227C1.977 205.415 3.22738 204.182 4.55224 203.018C4.77532 202.828 5.05691 202.719 5.35035 202.71C7.78193 202.763 10.2933 202.248 12.5812 203.518C14.7095 204.703 17.0187 205.537 18.9129 207.173C20.3442 208.417 22.0096 209.379 23.5367 210.516C24.388 211.135 25.1903 211.819 25.9363 212.561C28.4743 215.149 31.1506 217.636 33.4226 220.452C34.7794 222.131 36.2745 223.667 37.6313 225.319C38.8391 226.796 39.8128 228.46 40.8982 230.032C41.0951 230.319 41.3132 230.596 41.5154 230.877C42.6062 232.37 43.7182 233.853 44.777 235.367C45.9795 237.078 47.1607 238.8 48.294 240.543C48.5798 241.105 48.8339 241.684 49.0549 242.275C50.4223 244.932 51.9122 247.588 53.1625 250.309C54.7284 253.533 55.9758 256.902 56.8871 260.368C57.6202 263.242 58.5354 266.068 59.6272 268.827C60.5051 271.138 61.6012 273.375 62.6973 275.596C63.8679 277.977 65.1076 280.32 66.3899 282.642C66.9622 283.576 67.5839 284.479 68.2522 285.347C69.0177 286.581 69.8638 287.763 70.7848 288.886C74.3231 292.69 77.4145 296.909 81.5487 300.161C83.794 301.925 85.8053 303.992 88.0134 305.788C89.9076 307.324 91.9827 308.625 93.9247 310.103C97.3494 312.698 100.965 315.032 104.742 317.085C107.642 318.679 110.552 320.225 113.5 321.713C114.902 322.411 116.351 323.013 117.836 323.514C118.964 323.907 120.167 324.104 121.332 324.385C121.39 324.385 121.465 324.385 121.507 324.385C122.731 325.262 124.269 325.14 125.562 325.645C127.541 326.421 129.547 326.272 131.415 325.98C133.431 325.661 135.474 323.323 133.857 320.788C132.625 318.902 131.167 317.173 129.515 315.639C127.116 313.323 124.194 311.92 121.412 310.326C118.123 308.376 114.585 306.861 111.169 305.129C108.631 303.843 106.088 302.563 103.603 301.176C100.735 299.582 97.8834 297.919 95.09 296.165C92.7073 294.748 90.4295 293.163 88.2741 291.42C85.8053 289.295 83.6876 286.781 81.2933 284.571C79.165 282.631 77.739 280.235 76.1854 277.913C75.3866 276.576 74.7235 275.163 74.2061 273.694C73.6208 272.265 73.11 270.798 72.6098 269.332C72.5389 268.872 72.498 268.409 72.4875 267.945C72.3757 267.328 72.1948 266.728 72.0618 266.112C71.9183 265.616 71.8256 265.106 71.7851 264.592C71.7851 261.6 71.7479 258.614 71.7851 255.623C71.8534 254.999 71.9945 254.386 72.2055 253.795C72.264 253.572 72.4715 253.343 72.4342 253.152C72.0778 251.292 72.9663 249.624 73.259 247.87C73.5516 246.117 74.4615 244.682 75.1691 243.088C76.009 241.161 77.4132 239.533 79.1969 238.417C79.8793 237.984 80.6435 237.694 81.4423 237.567C84.2676 237.147 86.912 237.897 89.4234 239.161C93.68 241.287 97.2023 244.278 100.443 247.663C102.789 250.112 105.125 252.578 107.509 254.996C108.076 255.483 108.687 255.917 109.334 256.292C109.786 256.562 110.223 256.857 110.642 257.174C112.846 259.042 115.26 260.647 117.836 261.956C119.89 263.019 121.848 264.294 123.875 265.426C124.54 265.772 125.232 266.062 125.945 266.292C129.137 267.403 132.33 268.487 135.522 269.587C136.652 270.049 137.805 270.453 138.975 270.798C140.763 271.213 142.583 271.638 144.333 272.111C145.892 272.53 147.696 272.259 149.058 273.407C149.198 273.517 149.362 273.59 149.537 273.62C151.133 273.901 152.73 274.151 154.283 274.454C155.413 274.656 156.532 274.915 157.635 275.23C159.12 275.671 160.562 276.292 162.051 276.702C163.153 277.015 164.302 277.036 165.388 277.562C166.798 278.221 168.263 278.754 169.767 279.156C172.698 280.039 175.547 281.177 178.28 282.557C180.605 283.662 183.122 284.481 185.048 286.34C185.362 286.649 185.91 286.702 186.277 286.973C188.575 288.646 190.932 290.256 193.119 292.074C196.312 294.73 199.504 297.387 202.298 300.474C204.194 302.452 205.989 304.523 207.677 306.681C208.427 307.711 209.273 308.657 210.018 309.678C210.864 310.815 211.369 312.217 212.29 313.28C213.673 314.874 214.557 316.766 215.552 318.594C217.781 322.664 220.021 326.745 221.5 331.182C222.117 333.036 222.947 334.821 223.628 336.654C223.975 337.564 224.272 338.492 224.517 339.433C224.836 340.65 225.049 341.888 225.363 343.116C225.446 343.455 225.555 343.787 225.688 344.109C225.862 344.415 226.01 344.735 226.129 345.066C226.47 346.692 226.72 348.344 227.103 349.965C227.555 351.873 227.635 353.849 228.077 355.741C228.491 357.252 228.741 358.804 228.821 360.369C228.821 361.352 228.731 362.33 229.354 363.244C229.609 363.621 229.529 364.264 229.529 364.785C229.54 369.166 229.542 373.548 229.534 377.93Z"
        fill="#13989D" />
</svg>