<svg width="1500" height="500" viewBox="0 0 1500 500" fill="none" xmlns="http://www.w3.org/2000/svg">
    <path
        d="M255.275 50.9234C270.122 37.4298 286.825 29.7223 305.865 27.9101C338.943 24.7441 366.717 35.2246 387.372 61.8405C409.468 90.3123 411.084 121.208 395.494 152.867C391.105 161.776 383.922 169.636 376.869 176.841C349.446 204.877 321.651 232.497 293.834 260.161C282.393 271.536 270.602 282.563 258.288 294.397C251.366 288.043 243.877 281.296 236.519 274.375C215.165 254.265 193.942 234.047 172.545 213.981C158.156 200.488 143.069 187.693 129.204 173.675C105.361 149.57 96.8675 120.422 107.108 87.8669C117.785 53.9584 146.191 31.1853 182.436 27.2769C206.65 24.6787 228.79 30.5302 248.048 45.9233C250.187 47.5827 252.458 48.9801 255.275 50.9234Z"
        fill="#14999E" />
    <path
        d="M1217.03 257.737C1224.04 262.781 1230.06 265.925 1234.47 270.598C1243.27 279.921 1251.92 289.55 1259.28 300.03C1271.11 316.908 1281.83 334.572 1293.01 351.93C1293.97 353.415 1294.76 355.03 1296.09 357.367C1293.69 357.803 1291.83 358.437 1289.98 358.437C1275.3 358.524 1260.63 358.327 1245.96 358.568C1241.53 358.633 1238.86 357.039 1236.44 353.437C1225.74 337.563 1214.93 321.777 1203.91 306.144C1197.01 296.384 1189.65 286.951 1182.47 277.366C1177.99 271.384 1172.03 267.497 1164.91 265.554C1154.71 262.781 1144.3 262.956 1132.94 263.632C1132.94 295.139 1132.94 326.1 1132.94 357.738C1124.47 359.135 1116.74 358.284 1109.12 358.437C1101.37 358.589 1093.62 358.48 1086.09 358.48C1084.12 351.624 1083.4 146.317 1085.17 130.662C1086.98 130.4 1088.97 129.832 1090.94 129.854C1126.85 129.92 1162.79 129.92 1198.71 130.291C1207.36 130.378 1216.02 131.448 1224.61 132.54C1261.4 137.212 1279.1 165.728 1277.38 198.785C1276.85 209.091 1274.26 218.829 1268.84 227.781C1259.71 242.89 1245.3 250.226 1229.12 254.942C1225.76 255.925 1222.31 256.536 1217.03 257.737ZM1132.7 225.859C1134.84 226.121 1136.29 226.427 1137.7 226.427C1155.08 226.361 1172.44 226.383 1189.82 226.099C1195.5 226.012 1201.18 225.248 1206.81 224.484C1225.02 222.016 1233.3 199.309 1226.96 186.405C1221.07 174.374 1211.61 169.199 1198.99 169.003C1178.62 168.675 1158.25 168.741 1137.88 168.719C1136.22 168.719 1134.54 169.33 1132.7 169.702C1132.7 188.392 1132.7 206.601 1132.7 225.859Z"
        fill="#189A9F" />
    <path
        d="M137.785 323.963C137.152 318.701 133.702 316.255 130.187 314.137C125.056 311.059 119.837 308.089 114.4 305.6C104.248 300.95 95.1427 294.945 86.4527 287.893C72.457 276.561 71.4089 257.674 76.5399 244.53C79.4875 236.997 85.1644 234.661 92.5007 238.438C97.1951 240.862 101.518 244.333 105.339 248.023C116.322 258.657 128.833 266.386 143.789 269.989C151.933 271.954 159.99 274.225 168.134 276.19C189.423 281.364 205.82 293.242 218.768 310.906C233.812 331.474 238.79 354.596 238.681 379.4C238.572 401.496 234.423 422.872 226.672 443.462C223.877 450.885 219.467 457.85 214.947 464.444C211.716 469.16 206.781 472.239 200.515 472.37C192.873 472.523 189.03 469.553 189.074 462.021C189.095 457.326 190.449 452.632 191.344 447.981C192.349 442.719 194.03 437.544 194.488 432.239C195.318 422.828 190.689 415.841 182.349 412.108C176.715 409.575 170.449 407.937 164.313 407.195C147.326 405.121 130.514 402.566 114.357 396.758C78.7452 383.92 50.4044 362.522 32.1292 328.504C25.0549 315.317 20.3605 301.736 18.7448 287.019C16.7797 269.05 12.4128 251.713 5.49139 235.01C3.89749 231.146 2.21619 227.259 1.18998 223.22C0.338447 219.814 -0.294703 216.102 0.141982 212.674C1.51754 201.8 7.63114 198.853 17.0854 204.442C31.9108 213.198 42.6969 225.993 50.9721 240.796C55.3171 248.547 58.7013 256.91 61.8018 265.272C67.0202 279.356 74.9679 291.233 86.5837 300.884C98.1995 310.535 110.47 318.897 124.946 323.613C128.877 324.836 132.807 326.692 137.785 323.963Z"
        fill="#16999E" />
    <path
        d="M380.865 324.373C386.651 326.644 391.564 324.81 396.193 322.954C413.944 315.858 429.446 305.53 442.198 291.032C450.516 281.578 455.931 271.032 459.468 259.023C465.975 236.905 480.822 220.551 498.377 206.512C502.7 203.04 508.312 199.503 514.054 202.604C519.687 205.661 518.552 212.058 518.202 217.255C517.853 222.255 516.892 227.407 515.102 232.058C507.394 251.949 502.067 272.299 498.77 293.456C493.246 328.806 473.377 355.421 444.774 376.033C419.293 394.396 390.538 403.304 359.533 406.383C351.913 407.147 344.227 409.308 337.022 412.016C327.328 415.662 323.157 422.758 324.009 433.173C324.446 438.479 326.345 443.632 327.393 448.894C328.267 453.261 329.577 457.693 329.489 462.06C329.358 469.855 324.533 473.959 317.044 472.016C312.109 470.728 307.087 467.759 303.376 464.221C299.838 460.837 297.306 456.012 295.493 451.361C285.057 424.614 278.834 397.016 280.843 368.107C283.092 335.814 295.21 308.478 322.066 288.827C331.214 282.124 341.738 278.805 352.393 275.77C363.594 272.582 374.926 269.788 386.04 266.272C396.193 263.041 404.555 256.84 412.088 249.264C416.04 245.29 420.713 241.84 425.603 239.067C433.638 234.504 439.512 236.862 442.394 245.661C447.569 261.513 445.189 276.032 432.765 287.714C427.831 292.364 421.87 296.076 415.975 299.504C407.961 304.155 399.555 308.15 391.324 312.43C384.533 315.945 383.18 317.452 380.865 324.373Z"
        fill="#16999E" />
    <path
        d="M1495.79 130.422C1495.79 143.108 1495.79 155.51 1495.79 168.719C1453.73 168.719 1412.2 168.719 1370.11 168.719C1370.11 185.532 1370.11 201.558 1370.11 218.698C1379.67 219.79 1389.45 219.069 1399.19 219.2C1408.78 219.331 1418.36 219.222 1427.95 219.222C1437.84 219.222 1447.73 219.222 1457.6 219.222C1467.16 219.222 1476.72 219.222 1487.05 219.222C1487.05 232.06 1487.05 244.419 1487.05 257.825C1448.1 257.825 1409.34 257.825 1370.06 257.825C1370.06 278.764 1370.06 298.655 1370.06 319.55C1413.47 319.55 1456.44 319.55 1500 319.55C1500 332.673 1500 344.812 1500 356.996C1493.97 358.808 1335.39 359.463 1322.14 357.585C1322.14 282.126 1322.14 206.558 1322.14 130.4C1380 130.422 1437.62 130.422 1495.79 130.422Z"
        fill="#189A9F" />
    <path
        d="M1058.08 357.607C1056.2 358 1055.11 358.437 1054.01 358.437C1038.77 358.481 1023.51 358.459 1007.07 358.459C1000.28 341.537 993.512 324.681 986.525 307.323C955.236 307.323 923.926 307.323 891.873 307.323C885.694 324.07 879.515 340.86 873.205 357.957C856.567 357.957 840.257 357.957 822.375 357.957C853.161 281.406 883.576 205.838 914.013 130.16C930.979 130.16 947.376 130.16 963.926 130.16C964.625 131.274 965.411 132.213 965.848 133.261C977.027 160.379 988.14 187.497 999.298 214.615C1009.43 239.244 1019.58 263.851 1029.76 288.458C1038.32 309.201 1046.92 329.921 1055.5 350.664C1056.37 352.782 1057.09 354.965 1058.08 357.607ZM939.254 184.637C931.175 199.855 909.21 259.659 908.664 267.214C921.939 268.829 963.686 268.262 970.564 266.1C960.28 239.331 949.996 212.584 939.254 184.637Z"
        fill="#179A9F" />
    <path
        d="M760.955 274.529C776.174 279.224 790.65 283.678 806.217 288.482C804.951 292.586 803.969 296.233 802.724 299.792C789.558 336.844 763.139 356.932 724.274 361.364C702.985 363.788 682.177 361.91 662.745 353.002C631.304 338.591 611.98 313.744 604.644 280.032C598.836 253.241 599.229 226.254 607.373 200.075C618.88 163 643.422 138.655 681.675 129.485C705.802 123.699 729.972 124.354 753.269 133.306C780.475 143.743 798.182 163.066 805.279 193.044C789.995 196.625 775.016 200.118 760.213 203.59C757.047 197.826 754.492 192.498 751.348 187.52C743.531 175.14 732.33 168.241 717.68 166.232C689.492 162.345 661.915 177.193 654.775 207.018C648.509 233.132 648.902 259.224 656.085 285.163C664.47 315.381 699.295 331.451 729.951 318.023C743.728 311.975 751.064 299.945 756.807 286.8C758.335 283.263 759.296 279.464 760.955 274.529Z"
        fill="#179A9F" />
</svg>